<svg xmlns="http://www.w3.org/2000/svg" viewBox="0 0 100 125" x="0px" y="0px"><g><path d="m59.621,34.699h-10.308c-.106-.628-.268-1.235-.481-1.82l11.855-11.855s0,0,0,0l2.998-2.998s0,0,0,0l5.596-5.596c.188-.188.293-.442.293-.707s-.105-.52-.293-.707l-5.694-5.694c-.375-.375-1.039-.375-1.414,0l-5.596,5.596s0,0,0,0l-.926.926-14.364,14.364c-.753-.172-1.534-.271-2.338-.271-5.802,0-10.522,4.72-10.522,10.522v6.589c0,.147.033.293.096.427l1.258,2.663c.859,1.821,2.716,2.997,4.729,2.997h.384v1.739c0,2.236,1.819,4.056,4.055,4.056s4.055-1.819,4.055-4.056v-1.739h.384c2.014,0,3.87-1.176,4.729-2.997l1.258-2.664c.063-.134.096-.28.096-.427v-1.403h10.785c4.28,0,7.762,3.482,7.762,7.762v2.536c0,2.488-2.024,4.512-4.512,4.512h-8.621c-.552,0-1,.448-1,1v1.976h-27.003c-.552,0-1,.448-1,1v3.349c0,2.056,1.672,3.728,3.729,3.728h.815v.625c0,2.305,1.875,4.18,4.18,4.18h12.557c2.305,0,4.18-1.875,4.18-4.18v-.625h2.543v9.353l-31.589,6.617c-.463.097-.795.505-.795.979v5.794c0,.552.448,1,1,1h2.156v2.722c0,.552.448,1,1,1h6.312c.552,0,1-.448,1-1v-2.722h33.896v2.722c0,.552.448,1,1,1h6.312c.552,0,1-.448,1-1v-2.722h2.319c.552,0,1-.448,1-1v-36.674c0-10.409-8.468-18.877-18.877-18.877Zm-2.808-21.189l.471-.471,4.28,4.28-1.584,1.584-4.28-4.28,1.113-1.113Zm6.067-6.067l4.28,4.28-4.182,4.182-4.28-4.28,4.182-4.182Zm-8.594,8.594l4.28,4.28-10.655,10.655c-1.076-1.751-2.647-3.162-4.521-4.039l10.896-10.896Zm-15.337,11.9c4.699,0,8.522,3.823,8.522,8.522v5.589s0,0,0,0h-17.044s0,0,0,0v-5.589c0-4.699,3.823-8.522,8.522-8.522Zm2.055,22.938c0,1.133-.922,2.056-2.055,2.056s-2.055-.922-2.055-2.056v-1.739h4.11v1.739Zm2.384-3.739h-8.879c-1.244,0-2.39-.727-2.921-1.851l-.584-1.236h15.889l-.584,1.237c-.531,1.124-1.677,1.851-2.921,1.851Zm26.63,4.808v-2.536c0-5.383-4.379-9.762-9.762-9.762h-10.785v-2.946h10.149c9.306,0,16.877,7.571,16.877,16.877v23.096h-11.991v-18.302c3.116-.484,5.512-3.177,5.512-6.427Zm-14.132,6.512h6.621v18.217h-6.621v-18.217Zm-6.543,9.678c0,1.202-.978,2.18-2.18,2.18h-12.557c-1.202,0-2.18-.978-2.18-2.18v-.625h16.917v.625Zm1-2.625h-20.731c-.953,0-1.729-.775-1.729-1.728v-2.349h26.003v4.077h-3.543Zm-19.372,27.464h-4.312v-1.722h4.312v1.722Zm42.208,0h-4.312v-1.722h4.312v1.722Zm3.319-3.722H23.502v-3.982l31.488-6.596h21.508v10.578Z"/><path d="m33.694,34.488c.161.096.338.142.513.142.34,0,.671-.173.859-.486.815-1.361,2.303-2.207,3.883-2.207.543,0,1.074.096,1.579.284.517.194,1.094-.069,1.287-.586.193-.518-.069-1.094-.586-1.287-.73-.273-1.497-.411-2.279-.411-2.279,0-4.424,1.218-5.599,3.18-.284.474-.13,1.088.344,1.372Z"/><path d="m33.427,40.048c.552,0,1-.448,1-1v-2.589c0-.552-.448-1-1-1s-1,.448-1,1v2.589c0,.552.448,1,1,1Z"/><path d="m70.514,71.714c2.289,0,4.151-1.862,4.151-4.15s-1.862-4.15-4.151-4.15-4.15,1.862-4.15,4.15,1.862,4.15,4.15,4.15Zm0-6.301c1.186,0,2.151.965,2.151,2.15s-.965,2.15-2.151,2.15-2.15-.965-2.15-2.15.965-2.15,2.15-2.15Z"/></g></svg>